<?xml version="1.0" encoding="utf-8"?>
<!-- Generator: Adobe Illustrator 23.0.2, SVG Export Plug-In . SVG Version: 6.00 Build 0)  -->
<svg version="1.1" id="Layer_1" xmlns="http://www.w3.org/2000/svg"
     xmlns:xlink="http://www.w3.org/1999/xlink" x="0px" y="0px"
     viewBox="0 0 523.5 215.11" style="enable-background:new 0 0 523.5 215.11;" xml:space="preserve">
<style type="text/css">
	.st8 {
        opacity: 0.2;
        fill: #8A89BF;
        enable-background: new;
    }

    .st9 {
        opacity: 0.48;
        fill: #8A89BF;
        enable-background: new;
    }

    .st10 {
        fill: #8A89BF;
    }
</style>
    <g id="Group_37" transform="translate(-574.824 -507.478)">
	<g transform="matrix(1, 0, 0, 1, 574.82, 507.48)">
		<path id="Intersection_9-2" class="st8" d="M0,215.11c28.86-5.11,62.82-6.46,105.89-6.89c97.9-0.98,177.9-4.99,240.33-26.83
			c51.13-17.89,129.68-90.28,177.28-146.16v179.87H0z"/>
	</g>
        <g transform="matrix(1, 0, 0, 1, 574.82, 507.48)">
		<path id="Intersection_8-2" class="st9" d="M239.21,215.11c32.98-28.7,66.88-64.77,104.06-106.15
			C405.05,40.2,440.8,7.86,503.62,0.6c6.6-0.73,13.27-0.79,19.88-0.18v214.69H239.21z"/>
	</g>
        <g transform="matrix(1, 0, 0, 1, 574.82, 507.48)">
		<path id="Intersection_7-2" class="st10" d="M340.67,215.11c12.05-8.91,24.44-18.19,37.17-27.85
			c60.49-45.79,97.66-71.24,145.67-87.28v115.13H340.67z"/>
	</g>
</g>
</svg>
