<?xml version="1.0" encoding="utf-8"?>
<!-- Generator: Adobe Illustrator 23.0.2, SVG Export Plug-In . SVG Version: 6.00 Build 0)  -->
<svg version="1.1" id="Layer_1" xmlns="http://www.w3.org/2000/svg"
     xmlns:xlink="http://www.w3.org/1999/xlink" x="0px" y="0px"
     viewBox="0 0 329.33 630.62" style="enable-background:new 0 0 329.33 630.62;" xml:space="preserve">
<style type="text/css">
	.st11 {
        opacity: 0.2;
        fill: #89CBF0;
        enable-background: new;
    }

    .st12 {
        opacity: 0.48;
        fill: #89CBF0;
        enable-background: new;
    }

    .st13 {
        fill: #89CBF0;
    }
</style>
    <g id="Group_38" transform="translate(-1343.309 27)">
	<g transform="matrix(1, 0, 0, 1, 1343.31, -27)">
		<path id="Intersection_12-2" class="st11" d="M30.82,630.63c-8.3-16.36-8.86-36.07,10.8-57.13
			c51.99-55.7,129.77-188.8,121.66-253.16c-8.11-64.36-51.16-137.31-109.18-225.02C29.15,57.59,10.66,27.28,0,0h329.33v630.62
			L30.82,630.63z"/>
	</g>
        <g transform="matrix(1, 0, 0, 1, 1343.31, -27)">
		<path id="Intersection_11-2" class="st12" d="M56.85,630.62c-14.65-10.09-26.79-21.36-33.35-33.56
			c-27.21-50.61-5.64-89.04,48.6-159.84s94.47-129.67,102.05-181.62S109.03,96.24,60.44,51.29C39.59,32,43.06,14.13,53.83,0h275.5
			v630.62L56.85,630.62z"/>
	</g>
        <g transform="matrix(1, 0, 0, 1, 1343.31, -27)">
		<path id="Intersection_10-2" class="st13" d="M107.41,630.62c-12.13-10.17-22.2-21.55-27.6-33.87c-22.21-50.59-4.6-89,39.66-159.76
			s77.1-129.6,83.28-181.53s-53.14-159.29-92.8-204.22C92.94,31.98,95.77,14.12,104.55,0h224.78v630.62L107.41,630.62z"/>
	</g>
</g>
</svg>
