<?xml version="1.0" encoding="utf-8"?>
<!-- Generator: Adobe Illustrator 23.0.2, SVG Export Plug-In . SVG Version: 6.00 Build 0)  -->
<svg version="1.1" id="Layer_1" xmlns="http://www.w3.org/2000/svg" xmlns:xlink="http://www.w3.org/1999/xlink" x="0px" y="0px"
	 viewBox="0 0 439.5 288" style="enable-background:new 0 0 439.5 288;" xml:space="preserve">
<style type="text/css">
	.st0{opacity:0.59;fill:#A7CBEB;enable-background:new;}
	.st1{fill:#A7CBEB;}
</style>
<g>
	<g transform="matrix(1, 0, 0, 1, 0, 0)">
		<path id="star" class="st0" d="M149.4,0c0,0-12.8,31.4,5.9,52.3S222,87.2,250,96.4c28.6,9.3,58.9,19.9,82.6,28.6
			c22.7,11.8,46.6,23.7,44.4,68s-38.2,95-38.2,95h100.8V0H149.4z"/>
	</g>
</g>
<g>
	<g transform="matrix(1, 0, 0, 1, 0, 0)">
		<path id="Path_17-2_1_" class="st1" d="M160.9,0c0,0-12.3,28.7,5.6,47.8s62.7,31.5,89.6,39.9c28.7,9,43.7,11.2,80.1,26.5
			c23.3,9.8,44.7,21.6,42.6,62.1c-2.1,40.5-53.1,111.7-53.1,111.7h113.9V0H160.9z"/>
	</g>
</g>
</svg>
